<svg width="20" height="20" viewBox="0 0 20 20" fill="none" xmlns="http://www.w3.org/2000/svg">
<path d="M18.1142 1.74268C17.6218 1.18992 17.0373 0.751497 16.3939 0.45248C15.7506 0.153462 15.0611 -0.000293127 14.3648 4.1953e-07C13.6685 0.000293966 12.979 0.154631 12.3359 0.454191C11.6927 0.75375 11.1085 1.19266 10.6165 1.74584L9.97428 2.47563L9.3374 1.74742L9.33326 1.74277C8.84114 1.19027 8.2569 0.751997 7.61391 0.452984C6.97092 0.153971 6.28177 7.08159e-05 5.5858 7.08159e-05C4.88983 7.08159e-05 4.20068 0.153971 3.55769 0.452984C2.9147 0.751997 2.33046 1.19027 1.83834 1.74277L1.55224 2.06397C0.558356 3.17979 0 4.69317 0 6.27118C0 7.84919 0.558356 9.36256 1.55224 10.4784L9.10318 18.9556L9.95589 19.9587L9.97622 19.9358L9.99829 19.9606L10.7972 19.0142L18.4003 10.4782C19.3927 9.36154 19.95 7.84849 19.95 6.27104C19.95 4.69359 19.3927 3.18054 18.4003 2.06383L18.1142 1.74268ZM17.4632 9.42646L9.97622 17.8322L2.48904 9.42646C1.74363 8.5896 1.32487 7.45457 1.32487 6.27106C1.32487 5.08756 1.74363 3.95253 2.48904 3.11566L2.77518 2.79446C3.52023 1.95801 4.53061 1.4879 5.58427 1.48746C6.63792 1.48702 7.64862 1.95627 8.39422 2.79209L9.97142 4.59505L11.5561 2.79446C11.9252 2.38008 12.3634 2.05138 12.8456 1.82712C13.3279 1.60286 13.8447 1.48744 14.3667 1.48744C14.8887 1.48744 15.4056 1.60286 15.8878 1.82712C16.37 2.05138 16.8082 2.38008 17.1773 2.79446L17.4634 3.11562C18.2077 3.95317 18.6257 5.08798 18.6256 6.27108C18.6256 7.45418 18.2076 8.58895 17.4632 9.42646Z" fill="#336600"/>
</svg>
