<svg width="24" height="24" viewBox="0 0 24 24" fill="none" xmlns="http://www.w3.org/2000/svg">
<path d="M21.5 13.5652C22.878 13.5652 24 12.3944 24 10.9565V2.60865C24 1.17075 22.878 -3.43323e-05 21.5 -3.43323e-05H18.5C17.937 -3.43323e-05 17.419 0.198211 17 0.527984V13.5652H21.5Z" fill="#0E0F0E"/>
<path d="M1.52588e-05 9.65217C1.52588e-05 10.2793 0.238 10.8637 0.651015 11.2946C0.184 11.8278 -0.0539856 12.5426 0.0110302 13.2866C0.12803 14.6129 1.27305 15.6522 2.61902 15.6522H8.79602C8.49002 16.6216 8.00003 18.3986 8.00003 19.8261C8.00003 22.0894 9.84302 24 11 24C12.039 24 12.781 23.3896 12.813 23.3645C12.931 23.2654 13 23.1151 13 22.9565V19.4181L15.88 12.9078L16 12.8442V1.66016C15.186 1.25946 14.156 1.04346 13.5 1.04346H4.321C3.232 1.04346 2.27899 1.80939 2.05502 2.86641C1.94003 3.41008 2.00701 3.9579 2.236 4.43373C1.49701 4.82191 1 5.61601 1 6.52173C1 6.89112 1.081 7.24486 1.23498 7.5652C0.496 7.95337 1.52588e-05 8.74747 1.52588e-05 9.65217Z" fill="#0E0F0E"/>
</svg>
