<svg width="13" height="13" viewBox="0 0 13 13" fill="none" xmlns="http://www.w3.org/2000/svg">
<path d="M1.30191 12.7716L4.24223 9.83125C5.18462 10.5391 6.3317 10.9213 7.51035 10.92C10.521 10.92 12.9704 8.47062 12.9704 5.46C12.9704 2.44938 10.521 0 7.51035 0C4.49973 0 2.05035 2.44938 2.05035 5.46C2.04906 6.63865 2.43121 7.78573 3.1391 8.72812L0.19879 11.6684C0.0657415 11.8173 -0.00528049 12.0114 0.000304222 12.211C0.00588894 12.4105 0.0876579 12.6004 0.228822 12.7415C0.369986 12.8827 0.559834 12.9645 0.759393 12.97C0.958951 12.9756 1.15308 12.9046 1.30191 12.7716ZM7.51035 1.56C8.2817 1.56 9.03572 1.78873 9.67708 2.21727C10.3184 2.64581 10.8183 3.2549 11.1135 3.96753C11.4087 4.68017 11.4859 5.46433 11.3354 6.22085C11.1849 6.97738 10.8135 7.67229 10.2681 8.21772C9.72264 8.76314 9.02773 9.13458 8.2712 9.28506C7.51468 9.43554 6.73052 9.35831 6.01789 9.06313C5.30526 8.76795 4.69616 8.26808 4.26762 7.62672C3.83908 6.98537 3.61035 6.23135 3.61035 5.46C3.61159 4.42604 4.02288 3.43478 4.75401 2.70365C5.48513 1.97253 6.47639 1.56124 7.51035 1.56Z" fill="white"/>
</svg>
