<svg width="24" height="16" viewBox="0 0 24 16" fill="none" xmlns="http://www.w3.org/2000/svg">
<path d="M15.9089 8.11916L23.9999 13.0792V2.94971L15.9089 8.11916Z" fill="#FCFFFC"/>
<path d="M0 2.94971V13.0792L8.091 8.11916L0 2.94971Z" fill="#FCFFFC"/>
<path d="M22.4999 0H1.49992C0.751422 0 0.157422 0.541091 0.0449219 1.23782L11.9999 8.87564L23.9549 1.23782C23.8424 0.541091 23.2484 0 22.4999 0Z" fill="#FCFFFC"/>
<path d="M14.5349 8.99779L12.4124 10.3534C12.2864 10.4334 12.1439 10.4727 11.9999 10.4727C11.8559 10.4727 11.7134 10.4334 11.5874 10.3534L9.46485 8.99634L0.0478516 14.7723C0.163352 15.4632 0.754352 16 1.49985 16H22.4999C23.2454 16 23.8364 15.4632 23.9519 14.7723L14.5349 8.99779Z" fill="#FCFFFC"/>
</svg>
