<svg width="24" height="24" viewBox="0 0 24 24" fill="none" xmlns="http://www.w3.org/2000/svg">
<path d="M2.49998 10.4348C1.122 10.4348 0 11.6056 0 13.0435V21.3914C0 22.8292 1.122 24 2.49998 24H5.49998C6.063 24 6.58097 23.8018 6.99998 23.472V10.4348H2.49998Z" fill="#2E942E"/>
<path d="M24 14.3478C24 13.7207 23.762 13.1363 23.349 12.7054C23.816 12.1722 24.054 11.4574 23.989 10.7134C23.872 9.38711 22.727 8.3478 21.381 8.3478H15.204C15.51 7.37839 16 5.60138 16 4.1739C16 1.91059 14.157 0 13 0C11.961 0 11.219 0.610436 11.187 0.635479C11.069 0.734626 11 0.884887 11 1.04346V4.58189L8.12 11.0922L8 11.1558V22.3398C8.81398 22.7405 9.84397 22.9565 10.5 22.9565H19.679C20.768 22.9565 21.721 22.1906 21.945 21.1336C22.06 20.5899 21.993 20.0421 21.764 19.5663C22.503 19.1781 23 18.384 23 17.4783C23 17.1089 22.919 16.7551 22.765 16.4348C23.504 16.0466 24 15.2525 24 14.3478Z" fill="#2E942E"/>
</svg>
