<svg width="70" height="72" viewBox="0 0 70 72" fill="none" xmlns="http://www.w3.org/2000/svg">
<path d="M51.6901 41.9024C51.6901 29.0094 41.6171 18.5576 29.1917 18.5576C16.7663 18.5576 6.69385 29.0094 6.69385 41.9024C6.69385 54.7954 16.7663 65.2473 29.1917 65.2473C41.6171 65.2473 51.6901 54.7954 51.6901 41.9024Z" fill="#EAFCEA"/>
<path d="M29.1915 18.5576C28.037 18.5576 26.9028 18.6482 25.7944 18.8223C36.6078 20.5219 44.8952 30.2075 44.8952 41.9024C44.8952 53.5968 36.6078 63.2829 25.7944 64.9825C26.9028 65.1566 28.037 65.2473 29.1915 65.2473C41.617 65.2473 51.6899 54.7954 51.6899 41.9024C51.6899 29.0094 41.617 18.5576 29.1915 18.5576Z" fill="#31DF31" fill-opacity="0.2"/>
<path d="M26.2673 27.6299C22.8018 29.8771 20.2024 33.4735 22.1521 37.5192C24.1012 41.5649 28.4336 39.9917 32.441 39.4297C36.448 38.8678 33.4156 51.6789 35.7983 54.826C38.1811 57.9725 44.8957 51.6789 44.246 47.6332C43.2842 41.6435 42.9466 39.5418 50.7445 35.2714L50.7658 35.2637C48.1373 26.0528 40.1812 19.2187 30.6008 18.604L30.5997 18.6392C30.5997 18.6392 29.7334 25.3821 26.2673 27.6299Z" fill="#BAEB6C"/>
<path d="M43.2881 23.709C43.2892 23.7101 43.2908 23.7112 43.2925 23.7123C43.2908 23.7112 43.2897 23.7101 43.2881 23.709Z" fill="#BAEB6C"/>
<path d="M46.0386 26.4321C46.0393 26.4329 46.0401 26.4336 46.0401 26.4336C46.0401 26.4336 46.0393 26.4329 46.0386 26.4321Z" fill="#BAEB6C"/>
<path d="M14.2461 52.4658C13.2051 50.8233 16.0868 46.9594 16.7371 44.0376C17.3868 41.1158 13.4876 41.3405 12.2964 40.3292C11.1048 39.3173 9.48053 34.9349 8.28889 33.9236L8.09834 33.7676C7.19067 36.301 6.69385 39.041 6.69385 41.9024C6.69385 49.6187 10.3022 56.4593 15.8634 60.7099L15.8703 60.2205C15.8703 60.2205 16.7371 56.3994 14.2461 52.4658Z" fill="#BAEB6C"/>
<path d="M44.2461 47.6333C44.2413 47.6042 44.2366 47.5756 44.2323 47.5459C43.8013 49.3461 43.1697 51.0632 42.3628 52.6705C43.6431 51.1077 44.4982 49.2016 44.2461 47.6333Z" fill="#BAEB6C"/>
<path d="M30.6008 18.604L30.5998 18.6392C30.5998 18.6392 30.5271 19.2023 30.3413 20.0559C38.2305 23.1463 44.0067 30.7044 44.8013 39.7577C45.7955 38.3503 47.614 36.9858 50.7446 35.2714L50.7659 35.2637C48.1369 26.0528 40.1807 19.2187 30.6008 18.604Z" fill="#96D629"/>
<path d="M22.9746 26.5695C12.0943 24.659 5.34521 10.4828 5.34521 10.4828C5.34521 10.4828 16.2356 -0.596349 27.1153 1.31362C37.9951 3.22414 44.7442 17.4003 44.7442 17.4003C44.7442 17.4003 33.8538 28.4795 22.9746 26.5695Z" fill="#49CB5C"/>
<path d="M27.1152 1.3138C25.0377 0.949047 22.9607 1.05892 20.9585 1.47365C31.3829 3.89613 37.814 17.3999 37.814 17.3999C37.814 17.3999 30.6848 24.6509 22.2006 26.4087C22.4564 26.4686 22.7139 26.523 22.9745 26.5691C33.8538 28.4791 44.7441 17.3999 44.7441 17.3999C44.7441 17.3999 37.995 3.22377 27.1152 1.3138Z" fill="#07B128"/>
<path d="M52.1438 12.8091C55.0627 5.66192 65.1749 3.25537 65.1749 3.25537C65.1749 3.25537 70.5556 12.4372 67.6373 19.5844C64.7189 26.7316 54.6062 29.1376 54.6062 29.1376C54.6062 29.1376 49.2255 19.9563 52.1438 12.8091Z" fill="#49CB5C"/>
<path d="M65.1752 3.25537C65.1752 3.25537 62.8752 3.80359 60.1527 5.15106C61.5493 8.2135 63.7638 14.4279 61.6581 19.5844C60.131 23.323 56.6358 25.7642 53.6489 27.2424C54.1882 28.4246 54.6059 29.1376 54.6059 29.1376C54.6059 29.1376 64.7187 26.7316 67.637 19.5844C70.5559 12.4372 65.1752 3.25537 65.1752 3.25537Z" fill="#07B128"/>
<path d="M68.4717 8.39135C67.4663 5.12017 66.1043 2.77788 66.0465 2.67955C65.823 2.29833 65.3633 2.10002 64.9467 2.1989C64.8389 2.22472 62.2661 2.84599 59.299 4.37969C55.293 6.44951 52.4947 9.21257 51.2053 12.3695C50.1321 14.998 49.9782 18.212 50.7393 21.7623C49.1177 19.888 47.2934 18.2483 45.305 16.8678C44.6978 15.6264 43.0921 12.57 40.5819 9.37572C39.7556 8.32433 38.1653 9.64379 39.0002 10.7062C40.6918 12.8589 41.9647 14.976 42.7609 16.4306L33.4773 14.558L24.6565 2.10662C25.5132 2.11925 26.3725 2.20494 27.2277 2.37853C29.939 2.92784 32.6174 4.35662 35.189 6.62529C36.197 7.51409 37.5055 5.89635 36.5113 5.01964C33.6699 2.51366 30.6783 0.928331 27.6194 0.308153C22.9494 -0.63777 17.5029 0.603685 11.8675 3.89958C7.66671 6.35613 4.85773 9.05437 4.74042 9.16808C4.36461 9.53118 4.30463 10.1915 4.6194 10.6161C5.03129 11.4906 6.59237 14.6453 9.19062 18.0417C10.7226 20.0445 12.3378 21.7584 14.0087 23.1669C13.5341 23.5783 13.0718 24.009 12.6249 24.4622C10.2368 26.8797 8.40823 29.7312 7.20757 32.8486C6.1465 35.6034 5.57589 38.5664 5.54405 41.6206C5.4915 46.615 6.88961 51.4319 9.58873 55.5513C12.2252 59.575 15.911 62.6644 20.2477 64.4848C21.461 64.9935 22.2286 63.0401 21.0141 62.5303C19.443 61.8706 17.9668 61.0258 16.6054 60.0205C16.7794 59.0213 17.1834 55.4249 14.875 51.7017C14.5517 51.1809 15.5177 49.1358 16.0947 47.9141C16.6897 46.6551 17.3044 45.3532 17.5915 44.1277C17.8962 42.8258 17.5533 41.7327 16.6 40.9658C15.8999 40.4028 14.9842 40.1116 14.177 39.8545C13.6525 39.6876 13.058 39.4986 12.8457 39.3151C12.4083 38.9361 11.6939 37.5348 11.1201 36.4092C10.4831 35.1606 9.87637 33.9725 9.2575 33.2408C10.6508 29.8163 12.8887 26.7863 15.6913 24.4682C18.2514 26.2732 21.1734 27.5185 24.2791 27.7707C20.677 30.659 19.5119 34.3471 21.1777 37.8902C23.1225 42.0271 27.1252 41.3663 30.6571 40.784C31.2681 40.6829 31.9003 40.5785 32.5059 40.5005C32.7331 40.4709 32.8015 40.5352 32.8472 40.5769C33.6206 41.2888 33.5978 44.6891 33.5813 47.172C33.5585 50.6063 33.5372 53.85 34.7735 55.5156C35.4041 56.3648 36.2921 56.7988 37.333 56.7988C37.9567 56.7988 38.6345 56.6433 39.3452 56.328C42.419 54.9657 45.6145 50.8656 45.1272 47.6213C44.7009 44.7852 44.4191 42.9115 45.0837 41.4009C45.6983 40.0029 47.1835 38.7087 50.1087 37.0574C50.4591 38.69 50.6358 40.3885 50.6177 42.1309C50.5552 48.0784 48.2578 53.6451 44.1494 57.8046C39.5581 62.4529 33.1046 64.7485 26.7213 64.0206C25.4203 63.8745 25.1958 65.9691 26.4983 66.1174C33.4858 66.9139 40.5502 64.4002 45.5746 59.3124C50.0726 54.7586 52.5876 48.665 52.656 42.1534C52.7468 33.5193 48.4659 25.87 41.9493 21.464C43.2959 20.4703 44.2992 19.6111 44.8554 19.1124C47.2313 20.8762 49.3385 23.0493 51.0918 25.5811C55.301 31.6598 56.9703 39.0707 55.793 46.4491C53.362 61.68 39.4115 72.0258 24.6915 69.5094C17.5613 68.2905 11.317 64.2722 7.10777 58.1935C2.89855 52.1147 1.22919 44.7034 2.4065 37.3255C2.61829 35.9978 0.608161 35.6495 0.395842 36.9816C-0.87064 44.916 0.925048 52.8854 5.45062 59.4223C9.97669 65.9586 16.6923 70.2801 24.3592 71.5908C25.9628 71.8649 27.5679 72 29.1619 72C35.1875 72 41.0491 70.0637 46.0445 66.3596C52.3614 61.6756 56.5378 54.7267 57.8037 46.7924C58.7315 40.9785 58.0134 35.1458 55.7835 29.8713C56.8127 29.5571 58.5643 28.9473 60.4826 27.9558C64.4881 25.886 67.2869 23.1229 68.5757 19.966C69.8655 16.8085 69.8295 12.8062 68.4717 8.39135ZM9.31695 37.3936C10.0755 38.8817 10.7926 40.288 11.5378 40.9329C12.0654 41.3893 12.8001 41.6233 13.5777 41.8705C15.5697 42.5045 15.8012 42.8154 15.6101 43.6306C15.3755 44.6331 14.8102 45.83 14.2635 46.9874C13.2109 49.216 12.2167 51.3204 13.1588 52.8409C14.4954 54.9959 14.7242 57.1174 14.7014 58.4374C8.63063 52.7723 6.15871 43.8245 8.41991 35.6918C8.71981 36.2236 9.0351 36.8415 9.31695 37.3936ZM58.628 16.6657L55.7315 9.40154C57.1408 8.03759 58.7761 7.01091 60.1689 6.28801C61.3552 5.67223 62.4843 5.21135 63.3893 4.88506L58.628 16.6657ZM65.2683 5.70299C65.6733 6.60277 66.1426 7.76348 66.5433 9.07524C66.9828 10.515 67.3862 12.2992 67.4663 14.1603L60.6785 17.0585L65.2683 5.70299ZM53.0828 13.1907C53.3833 12.4552 53.7718 11.7729 54.2208 11.1434L57.5181 19.4117L54.559 26.7336C54.1433 25.8212 53.6539 24.622 53.2383 23.2602C52.405 20.5334 51.7016 16.5723 53.0828 13.1907ZM59.6121 26.0475C58.4704 26.6407 57.3807 27.0895 56.4932 27.4136L59.5638 19.8166L67.3798 16.4789C67.2662 17.3853 67.0501 18.2834 66.6983 19.1448C65.3176 22.5264 62.083 24.7654 59.6121 26.0475ZM22.8613 25.4471C22.5009 25.374 22.1458 25.285 21.7955 25.1834L33.0754 16.6262L42.3633 18.4999C38.9801 21.2585 30.7457 27.0456 22.8613 25.4471ZM12.5522 18.8476C10.1397 16.157 8.3716 13.2797 7.35619 11.4379L19.1759 13.8224L12.5522 18.8476ZM14.6398 4.77519L19.5852 11.7559L7.68899 9.35594C9.18638 8.13207 11.6588 6.2946 14.6398 4.77519ZM22.5338 12.3508L16.5384 3.8875C18.333 3.12395 20.2598 2.52355 22.235 2.25603L30.5287 13.9631L22.5338 12.3508ZM21.8995 14.3718L30.3525 16.0768L19.5034 24.3067C17.4578 23.3289 15.6165 21.9232 14.0055 20.3604L21.8995 14.3718ZM49.5551 34.9689C45.8809 36.9948 44.0816 38.5862 43.228 40.5275C42.3113 42.6116 42.6473 44.8489 43.1123 47.9454C43.3867 49.7714 41.2901 53.1711 38.5427 54.3889C37.5262 54.8394 36.8021 54.7861 36.3898 54.2302C35.5798 53.1398 35.602 49.8384 35.6196 47.1863C35.6434 43.5168 35.6647 40.3478 34.2018 39.0009C33.6758 38.517 33.0027 38.3121 32.2548 38.4071C31.6141 38.4895 30.9639 38.5966 30.336 38.7004C26.5897 39.3184 24.2319 39.5656 23.0105 36.9673C21.0317 32.7585 25.0376 29.6411 26.8513 28.4963C27.2207 28.2634 27.5637 27.9888 27.8821 27.6828C32.2665 27.1406 36.4094 25.1938 40.1011 22.7554C44.5274 25.4921 47.9256 29.8235 49.5551 34.9689Z" fill="#0E0F0E"/>
</svg>
