<svg width="72" height="108" viewBox="0 0 72 108" fill="none" xmlns="http://www.w3.org/2000/svg">
<path d="M8.304 99H4.848V82.2H16.968V85.296H8.304V99ZM23.1165 99H19.6605V82.2H27.0045C28.8125 82.2 30.2365 82.672 31.2765 83.616C32.3325 84.544 32.8605 85.76 32.8605 87.264C32.8605 88.784 32.3325 90.008 31.2765 90.936C30.2365 91.88 28.8125 92.352 27.0045 92.352H23.1165V99ZM23.1165 85.224V89.4H26.7645C27.5965 89.4 28.2445 89.224 28.7085 88.872C29.1725 88.504 29.4045 87.984 29.4045 87.312C29.4045 86.64 29.1725 86.128 28.7085 85.776C28.2445 85.408 27.5965 85.224 26.7645 85.224H23.1165ZM38.3848 99H35.4808V82.2H38.9368V93.144L47.0728 82.2H50.0488V99H46.6168V87.984L38.3848 99ZM57.2181 99H53.7621V82.2H57.2181V88.488H64.8021V82.2H68.2341V99H64.8021V91.632H57.2181V99Z" fill="#49CB5C"/>
<path d="M53.5361 41.9024C53.5361 29.0094 43.1034 18.5576 30.2342 18.5576C17.365 18.5576 6.93286 29.0094 6.93286 41.9024C6.93286 54.7954 17.365 65.2473 30.2342 65.2473C43.1034 65.2473 53.5361 54.7954 53.5361 41.9024Z" fill="#EAFCEA"/>
<path d="M30.2342 18.5576C29.0385 18.5576 27.8637 18.6482 26.7158 18.8223C37.9154 20.5219 46.4987 30.2075 46.4987 41.9024C46.4987 53.5968 37.9154 63.2829 26.7158 64.9825C27.8637 65.1566 29.0385 65.2473 30.2342 65.2473C43.1035 65.2473 53.5361 54.7954 53.5361 41.9024C53.5361 29.0094 43.1035 18.5576 30.2342 18.5576Z" fill="#31DF31" fill-opacity="0.2"/>
<path d="M27.2055 27.6301C23.6162 29.8773 20.924 33.4737 22.9433 37.5194C24.962 41.5651 29.4491 39.9919 33.5997 39.4299C37.7498 38.868 34.6091 51.6791 37.0769 54.8262C39.5448 57.9727 46.4992 51.6791 45.8263 47.6334C44.8301 41.6437 44.4805 39.542 52.5569 35.2716L52.5789 35.2639C49.8565 26.053 41.6163 19.2189 31.6937 18.6042L31.6926 18.6394C31.6926 18.6394 30.7954 25.3823 27.2055 27.6301Z" fill="#BAEB6C"/>
<path d="M44.834 23.709C44.8351 23.7101 44.8367 23.7112 44.8384 23.7123C44.8367 23.7112 44.8356 23.7101 44.834 23.709Z" fill="#BAEB6C"/>
<path d="M47.6829 26.432C47.6836 26.4328 47.6844 26.4335 47.6844 26.4335C47.6844 26.4335 47.6836 26.4328 47.6829 26.432Z" fill="#BAEB6C"/>
<path d="M14.7548 52.4658C13.6767 50.8233 16.6613 46.9594 17.3348 44.0376C18.0077 41.1158 13.9692 41.3405 12.7355 40.3292C11.5013 39.3173 9.81907 34.9349 8.58487 33.9236L8.38751 33.7676C7.44743 36.301 6.93286 39.041 6.93286 41.9024C6.93286 49.6187 10.6701 56.4593 16.4299 60.7099L16.437 60.2205C16.437 60.2205 17.3348 56.3994 14.7548 52.4658Z" fill="#BAEB6C"/>
<path d="M45.8263 47.6335C45.8213 47.6044 45.8164 47.5758 45.812 47.5461C45.3656 49.3463 44.7114 51.0634 43.8757 52.6707C45.2017 51.1079 46.0874 49.2018 45.8263 47.6335Z" fill="#BAEB6C"/>
<path d="M31.6936 18.6042L31.6925 18.6394C31.6925 18.6394 31.6172 19.2025 31.4248 20.0561C39.5958 23.1465 45.5782 30.7046 46.4012 39.7579C47.4309 38.3505 49.3144 36.986 52.5568 35.2716L52.5788 35.2639C49.8559 26.053 41.6156 19.2189 31.6936 18.6042Z" fill="#96D629"/>
<path d="M23.7949 26.5693C12.526 24.6588 5.53589 10.4826 5.53589 10.4826C5.53589 10.4826 16.8152 -0.596563 28.0835 1.31341C39.3518 3.22393 46.342 17.4001 46.342 17.4001C46.342 17.4001 35.0626 28.4793 23.7949 26.5693Z" fill="#49CB5C"/>
<path d="M28.0836 1.31395C25.9319 0.949202 23.7807 1.05907 21.707 1.4738C32.5037 3.89628 39.1645 17.4001 39.1645 17.4001C39.1645 17.4001 31.7807 24.6511 22.9935 26.4089C23.2584 26.4688 23.5251 26.5232 23.795 26.5693C35.0628 28.4793 46.3421 17.4001 46.3421 17.4001C46.3421 17.4001 39.352 3.22392 28.0836 1.31395Z" fill="#07B128"/>
<path d="M54.0061 12.8089C57.0292 5.66177 67.5026 3.25522 67.5026 3.25522C67.5026 3.25522 73.0754 12.437 70.0529 19.5842C67.0303 26.7314 56.5564 29.1374 56.5564 29.1374C56.5564 29.1374 50.9835 19.9561 54.0061 12.8089Z" fill="#49CB5C"/>
<path d="M67.5031 3.25522C67.5031 3.25522 65.121 3.80344 62.3013 5.15091C63.7477 8.21335 66.0413 14.4278 63.8604 19.5842C62.2788 23.3228 58.6587 25.764 55.5652 27.2422C56.1237 28.4244 56.5564 29.1374 56.5564 29.1374C56.5564 29.1374 67.0303 26.7314 70.0529 19.5842C73.076 12.437 67.5031 3.25522 67.5031 3.25522Z" fill="#07B128"/>
<path d="M70.9171 8.39135C69.8758 5.12017 68.4652 2.77788 68.4053 2.67955C68.1738 2.29833 67.6977 2.10002 67.2662 2.1989C67.1546 2.22472 64.4899 2.84599 61.4168 4.37969C57.2678 6.44951 54.3695 9.21257 53.0341 12.3695C51.9225 14.998 51.7631 18.212 52.5514 21.7623C50.8719 19.888 48.9824 18.2483 46.923 16.8678C46.2941 15.6264 44.6311 12.57 42.0313 9.37572C41.1754 8.32433 39.5283 9.64379 40.3931 10.7062C42.1451 12.8589 43.4634 14.976 44.2881 16.4306L34.6729 14.558L25.5371 2.10662C26.4244 2.11925 27.3144 2.20494 28.2001 2.37853C31.0082 2.92784 33.7823 4.35662 36.4458 6.62529C37.4898 7.51409 38.845 5.89635 37.8153 5.01964C34.8724 2.51366 31.774 0.928331 28.6058 0.308153C23.769 -0.63777 18.128 0.603685 12.2913 3.89958C7.94052 6.35613 5.03122 9.05437 4.90972 9.16808C4.52049 9.53118 4.45837 10.1915 4.78438 10.6161C5.21098 11.4906 6.82781 14.6453 9.51886 18.0417C11.1055 20.0445 12.7784 21.7584 14.509 23.1669C14.0175 23.5783 13.5387 24.009 13.0758 24.4622C10.6024 26.8797 8.70852 29.7312 7.46498 32.8486C6.36602 35.6034 5.77503 38.5664 5.74205 41.6206C5.68762 46.615 7.13567 51.4319 9.93118 55.5513C12.6618 59.575 16.4793 62.6644 20.9708 64.4848C22.2275 64.9935 23.0225 63.0401 21.7646 62.5303C20.1374 61.8706 18.6085 61.0258 17.1984 60.0205C17.3787 59.0213 17.7971 55.4249 15.4062 51.7017C15.0714 51.1809 16.0719 49.1358 16.6695 47.9141C17.2858 46.6551 17.9224 45.3532 18.2198 44.1277C18.5354 42.8258 18.1802 41.7327 17.1929 40.9658C16.4678 40.4028 15.5194 40.1116 14.6833 39.8545C14.1401 39.6876 13.5244 39.4986 13.3045 39.3151C12.8515 38.9361 12.1115 37.5348 11.5172 36.4092C10.8575 35.1606 10.2291 33.9725 9.58813 33.2408C11.0312 29.8163 13.349 26.7863 16.2517 24.4682C18.9032 26.2732 21.9296 27.5185 25.1462 27.7707C21.4155 30.659 20.2088 34.3471 21.934 37.8902C23.9483 42.0271 28.094 41.3663 31.752 40.784C32.3848 40.6829 33.0396 40.5785 33.6668 40.5005C33.9021 40.4709 33.973 40.5352 34.0203 40.5769C34.8213 41.2888 34.7977 44.6891 34.7806 47.172C34.757 50.6063 34.735 53.85 36.0154 55.5156C36.6685 56.3648 37.5882 56.7988 38.6663 56.7988C39.3123 56.7988 40.0143 56.6433 40.7504 56.328C43.934 54.9657 47.2436 50.8656 46.7389 47.6213C46.2974 44.7852 46.0055 42.9115 46.6938 41.4009C47.3304 40.0029 48.8686 38.7087 51.8983 37.0574C52.2612 38.69 52.4442 40.3885 52.4255 42.1309C52.3607 48.0784 49.9813 53.6451 45.7262 57.8046C40.9709 62.4529 34.2869 64.7485 27.6756 64.0206C26.3282 63.8745 26.0956 65.9691 27.4447 66.1174C34.6817 66.9139 41.9984 64.4002 47.2023 59.3124C51.8609 54.7586 54.4657 48.665 54.5366 42.1534C54.6306 33.5193 50.1968 25.87 43.4475 21.464C44.8422 20.4703 45.8813 19.6111 46.4574 19.1124C48.9181 20.8762 51.1006 23.0493 52.9165 25.5811C57.276 31.6598 59.005 39.0707 57.7856 46.4491C55.2678 61.68 40.8191 72.0258 25.5733 69.5094C18.1885 68.2905 11.7212 64.2722 7.36162 58.1935C3.00207 52.1147 1.27309 44.7034 2.49245 37.3255C2.7118 35.9978 0.629881 35.6495 0.409979 36.9816C-0.901734 44.916 0.958085 52.8854 5.64529 59.4223C10.333 65.9586 17.2885 70.2801 25.2292 71.5908C26.89 71.8649 28.5525 72 30.2034 72C36.4442 72 42.5151 70.0637 47.6889 66.3596C54.2315 61.6756 58.557 54.7267 59.8681 46.7924C60.8291 40.9785 60.0853 35.1458 57.7758 29.8713C58.8417 29.5571 60.6559 28.9473 62.6427 27.9558C66.7912 25.886 69.69 23.1229 71.0248 19.966C72.3607 16.8085 72.3234 12.8062 70.9171 8.39135ZM9.6497 37.3936C10.4353 38.8817 11.178 40.288 11.9499 40.9329C12.4963 41.3893 13.2572 41.6233 14.0626 41.8705C16.1258 42.5045 16.3655 42.8154 16.1676 43.6306C15.9246 44.6331 15.3391 45.83 14.7729 46.9874C13.6827 49.216 12.653 51.3204 13.6288 52.8409C15.0131 54.9959 15.2501 57.1174 15.2264 58.4374C8.93887 52.7723 6.37866 43.8245 8.72062 35.6918C9.03123 36.2236 9.35778 36.8415 9.6497 37.3936ZM60.7219 16.6657L57.7219 9.40154C59.1815 8.03759 60.8753 7.01091 62.3178 6.28801C63.5465 5.67223 64.7159 5.21135 65.6532 4.88506L60.7219 16.6657ZM67.5993 5.70299C68.0188 6.60277 68.5048 7.76348 68.9198 9.07524C69.375 10.515 69.7928 12.2992 69.8758 14.1603L62.8456 17.0585L67.5993 5.70299ZM54.9786 13.1907C55.2898 12.4552 55.6922 11.7729 56.1573 11.1434L59.5723 19.4117L56.5075 26.7336C56.077 25.8212 55.5701 24.622 55.1397 23.2602C54.2766 20.5334 53.5481 16.5723 54.9786 13.1907ZM61.7411 26.0475C60.5586 26.6407 59.43 27.0895 58.5108 27.4136L61.6911 19.8166L69.7862 16.4789C69.6686 17.3853 69.4448 18.2834 69.0804 19.1448C67.6504 22.5264 64.3002 24.7654 61.7411 26.0475ZM23.6778 25.4471C23.3045 25.374 22.9367 25.285 22.5739 25.1834L34.2567 16.6262L43.8763 18.4999C40.3722 21.2585 31.8438 27.0456 23.6778 25.4471ZM13.0005 18.8476C10.5018 16.157 8.67059 13.2797 7.61891 11.4379L19.8608 13.8224L13.0005 18.8476ZM15.1626 4.77519L20.2847 11.7559L7.9636 9.35594C9.51446 8.13207 12.0752 6.2946 15.1626 4.77519ZM23.3386 12.3508L17.1291 3.8875C18.9878 3.12395 20.9834 2.52355 23.0291 2.25603L31.619 13.9631L23.3386 12.3508ZM22.6816 14.3718L31.4365 16.0768L20.2 24.3067C18.0813 23.3289 16.1742 21.9232 14.5057 20.3604L22.6816 14.3718ZM51.3249 34.9689C47.5195 36.9948 45.6559 38.5862 44.7719 40.5275C43.8224 42.6116 44.1704 44.8489 44.652 47.9454C44.9362 49.7714 42.7647 53.1711 39.9192 54.3889C38.8664 54.8394 38.1165 54.7861 37.6894 54.2302C36.8505 53.1398 36.8735 49.8384 36.8917 47.1863C36.9164 43.5168 36.9384 40.3478 35.4233 39.0009C34.8785 38.517 34.1814 38.3121 33.4068 38.4071C32.7432 38.4895 32.0698 38.5966 31.4194 38.7004C27.5393 39.3184 25.0973 39.5656 23.8323 36.9673C21.7828 32.7585 25.9318 29.6411 27.8103 28.4963C28.1929 28.2634 28.5481 27.9888 28.8779 27.6828C33.4189 27.1406 37.7097 25.1938 41.5333 22.7554C46.1177 25.4921 49.6372 29.8235 51.3249 34.9689Z" fill="#0E0F0E"/>
</svg>
