<svg width="24" height="24" viewBox="0 0 24 24" fill="none" xmlns="http://www.w3.org/2000/svg">
<path d="M9.93947 14.062C7.64871 11.7713 7.13147 9.48049 7.01478 8.5627C6.98218 8.30893 7.06951 8.05443 7.25106 7.87415L9.10485 6.02118C9.37755 5.74865 9.42594 5.32393 9.22154 4.99704L6.26996 0.413871C6.04382 0.051905 5.57952 -0.0787322 5.19782 0.112216L0.459474 2.3438C0.150809 2.49579 -0.0307442 2.82374 0.00430138 3.16601C0.252577 5.52463 1.28085 11.3227 6.97878 17.021C12.6767 22.7194 18.474 23.7472 20.8338 23.9955C21.1761 24.0306 21.504 23.849 21.656 23.5404L23.8876 18.802C24.0778 18.4211 23.9481 17.9581 23.5876 17.7315L19.0044 14.7808C18.6777 14.5762 18.253 14.6242 17.9803 14.8966L16.1273 16.7504C15.9471 16.932 15.6926 17.0193 15.4388 16.9867C14.521 16.87 12.2302 16.3528 9.93947 14.062Z" fill="#FCFFFC"/>
</svg>
