<svg width="20" height="19" viewBox="0 0 20 19" fill="none" xmlns="http://www.w3.org/2000/svg">
<path fill-rule="evenodd" clip-rule="evenodd" d="M10 0C10.2947 0 10.5773 0.11121 10.7857 0.309165C10.994 0.50712 11.1111 0.775605 11.1111 1.05556V9.5C11.1111 9.77995 10.994 10.0484 10.7857 10.2464C10.5773 10.4443 10.2947 10.5556 10 10.5556H1.11111C0.816426 10.5556 0.533811 10.4443 0.325437 10.2464C0.117063 10.0484 0 9.77995 0 9.5C0 9.22005 0.117063 8.95156 0.325437 8.75361C0.533811 8.55565 0.816426 8.44444 1.11111 8.44444H8.88889V1.05556C8.88889 0.775605 9.00595 0.50712 9.21433 0.309165C9.4227 0.11121 9.70531 0 10 0Z" fill="#336600"/>
<path fill-rule="evenodd" clip-rule="evenodd" d="M8.88867 9.49989C8.88867 9.21994 9.00574 8.95146 9.21411 8.7535C9.42248 8.55555 9.7051 8.44434 9.99978 8.44434H18.8887C19.1834 8.44434 19.466 8.55555 19.6743 8.7535C19.8827 8.95146 19.9998 9.21994 19.9998 9.49989C19.9998 9.77984 19.8827 10.0483 19.6743 10.2463C19.466 10.4442 19.1834 10.5554 18.8887 10.5554H11.1109V17.9443C11.1109 18.2243 10.9938 18.4928 10.7855 18.6907C10.5771 18.8887 10.2945 18.9999 9.99978 18.9999C9.7051 18.9999 9.42248 18.8887 9.21411 18.6907C9.00574 18.4928 8.88867 18.2243 8.88867 17.9443V9.49989Z" fill="#336600"/>
</svg>
