<svg width="24" height="28" viewBox="0 0 24 28" fill="none" xmlns="http://www.w3.org/2000/svg">
<path d="M11.8186 13.4876C13.7223 13.4876 15.3707 12.8231 16.7176 11.5118C18.0645 10.2009 18.7473 8.59677 18.7473 6.7436C18.7473 4.89108 18.0645 3.28678 16.7174 1.97536C15.3703 0.664576 13.7221 0 11.8186 0C9.91467 0 8.26667 0.664576 6.91978 1.97557C5.57289 3.28657 4.88989 4.89086 4.88989 6.7436C4.88989 8.59677 5.57289 10.2011 6.92 11.5121C8.26711 12.8228 9.91533 13.4876 11.8186 13.4876Z" fill="#0E0F0E"/>
<path d="M23.9418 21.5305C23.903 20.9849 23.8244 20.3897 23.7088 19.7613C23.592 19.1281 23.4417 18.5295 23.2617 17.9824C23.0758 17.417 22.823 16.8586 22.5105 16.3235C22.1861 15.768 21.8051 15.2844 21.3775 14.8864C20.9305 14.4701 20.3831 14.1353 19.7502 13.8912C19.1194 13.6483 18.4204 13.5252 17.6727 13.5252C17.379 13.5252 17.095 13.6425 16.5466 13.9901C16.209 14.2043 15.8142 14.4521 15.3735 14.7262C14.9967 14.9599 14.4862 15.1789 13.8556 15.3771C13.2404 15.5709 12.6158 15.6691 11.9993 15.6691C11.3828 15.6691 10.7585 15.5709 10.1426 15.3771C9.51274 15.1791 9.00225 14.9601 8.62586 14.7264C8.18933 14.4549 7.79428 14.2071 7.45169 13.9899C6.90389 13.6423 6.61968 13.525 6.32602 13.525C5.57807 13.525 4.87927 13.6483 4.24873 13.8914C3.61622 14.1351 3.06864 14.4699 2.62114 14.8866C2.19383 15.2848 1.81261 15.7683 1.48867 16.3235C1.17636 16.8586 0.923533 17.4168 0.737422 17.9827C0.557675 18.5297 0.407338 19.1281 0.290579 19.7613C0.174918 20.3889 0.0963477 20.9843 0.0575014 21.5311C0.0193134 22.0669 0 22.6229 0 23.1846C0 24.6462 0.477349 25.8294 1.41866 26.702C2.34834 27.5632 3.57847 28 5.07438 28H18.9256C20.4215 28 21.6512 27.5634 22.5811 26.702C23.5226 25.83 24 24.6466 24 23.1843C23.9998 22.6202 23.9802 22.0637 23.9418 21.5305Z" fill="#0E0F0E"/>
</svg>
